<mxfile host="app.diagrams.net" agent="Mozilla/5.0 (Windows NT 10.0; Win64; x64) AppleWebKit/537.36 (KHTML, like Gecko) Chrome/139.0.0.0 Safari/537.36" version="28.1.0">
  <diagram name="Page-1" id="cV7oGcCZ6eIM_f0YyGlN">
    <mxGraphModel dx="2130" dy="703" grid="1" gridSize="10" guides="1" tooltips="1" connect="1" arrows="0" fold="1" page="1" pageScale="1" pageWidth="827" pageHeight="1169" math="0" shadow="0">
      <root>
        <mxCell id="0" />
        <mxCell id="1" parent="0" />
        <mxCell id="_44YVeYt1oRbR6Rtj2PV-1" value="Staff" style="rounded=0;whiteSpace=wrap;html=1;" vertex="1" parent="1">
          <mxGeometry x="80" y="290" width="120" height="60" as="geometry" />
        </mxCell>
        <mxCell id="_44YVeYt1oRbR6Rtj2PV-2" value="Name" style="ellipse;whiteSpace=wrap;html=1;" vertex="1" parent="1">
          <mxGeometry x="100" y="150" width="80" height="60" as="geometry" />
        </mxCell>
        <mxCell id="_44YVeYt1oRbR6Rtj2PV-3" value="&lt;u&gt;Staff_id&lt;/u&gt;" style="ellipse;whiteSpace=wrap;html=1;" vertex="1" parent="1">
          <mxGeometry x="-20" y="210" width="70" height="50" as="geometry" />
        </mxCell>
        <mxCell id="_44YVeYt1oRbR6Rtj2PV-4" value="Login" style="rhombus;whiteSpace=wrap;html=1;" vertex="1" parent="1">
          <mxGeometry x="360" y="280" width="80" height="80" as="geometry" />
        </mxCell>
        <mxCell id="_44YVeYt1oRbR6Rtj2PV-5" value="Authentication&lt;div&gt;System&lt;/div&gt;" style="rounded=0;whiteSpace=wrap;html=1;" vertex="1" parent="1">
          <mxGeometry x="590" y="290" width="120" height="60" as="geometry" />
        </mxCell>
        <mxCell id="_44YVeYt1oRbR6Rtj2PV-6" value="&lt;u&gt;Login_id&lt;/u&gt;" style="ellipse;whiteSpace=wrap;html=1;" vertex="1" parent="1">
          <mxGeometry x="760" y="390" width="80" height="50" as="geometry" />
        </mxCell>
        <mxCell id="_44YVeYt1oRbR6Rtj2PV-8" value="password" style="ellipse;whiteSpace=wrap;html=1;" vertex="1" parent="1">
          <mxGeometry x="770" y="210" width="80" height="50" as="geometry" />
        </mxCell>
        <mxCell id="_44YVeYt1oRbR6Rtj2PV-9" value="" style="endArrow=none;html=1;rounded=0;entryX=0;entryY=0.5;entryDx=0;entryDy=0;" edge="1" parent="1" source="_44YVeYt1oRbR6Rtj2PV-1" target="_44YVeYt1oRbR6Rtj2PV-4">
          <mxGeometry width="50" height="50" relative="1" as="geometry">
            <mxPoint x="200" y="320" as="sourcePoint" />
            <mxPoint x="250" y="270" as="targetPoint" />
          </mxGeometry>
        </mxCell>
        <mxCell id="_44YVeYt1oRbR6Rtj2PV-10" value="" style="endArrow=none;html=1;rounded=0;" edge="1" parent="1">
          <mxGeometry width="50" height="50" relative="1" as="geometry">
            <mxPoint x="440" y="319.5" as="sourcePoint" />
            <mxPoint x="590" y="320" as="targetPoint" />
          </mxGeometry>
        </mxCell>
        <mxCell id="_44YVeYt1oRbR6Rtj2PV-11" value="" style="endArrow=none;html=1;rounded=0;entryX=0.04;entryY=0.652;entryDx=0;entryDy=0;exitX=1;exitY=0;exitDx=0;exitDy=0;entryPerimeter=0;" edge="1" parent="1" source="_44YVeYt1oRbR6Rtj2PV-5" target="_44YVeYt1oRbR6Rtj2PV-8">
          <mxGeometry width="50" height="50" relative="1" as="geometry">
            <mxPoint x="570" y="220" as="sourcePoint" />
            <mxPoint x="730" y="220" as="targetPoint" />
          </mxGeometry>
        </mxCell>
        <mxCell id="_44YVeYt1oRbR6Rtj2PV-12" value="" style="endArrow=none;html=1;rounded=0;entryX=0;entryY=0.5;entryDx=0;entryDy=0;exitX=1;exitY=0.5;exitDx=0;exitDy=0;" edge="1" parent="1" source="_44YVeYt1oRbR6Rtj2PV-5" target="_44YVeYt1oRbR6Rtj2PV-6">
          <mxGeometry width="50" height="50" relative="1" as="geometry">
            <mxPoint x="740" y="270" as="sourcePoint" />
            <mxPoint x="900" y="270" as="targetPoint" />
          </mxGeometry>
        </mxCell>
        <mxCell id="_44YVeYt1oRbR6Rtj2PV-13" value="1&lt;span style=&quot;color: rgba(0, 0, 0, 0); font-family: monospace; font-size: 0px; text-align: start; text-wrap-mode: nowrap;&quot;&gt;%3CmxGraphModel%3E%3Croot%3E%3CmxCell%20id%3D%220%22%2F%3E%3CmxCell%20id%3D%221%22%20parent%3D%220%22%2F%3E%3CmxCell%20id%3D%222%22%20value%3D%22%22%20style%3D%22endArrow%3Dnone%3Bhtml%3D1%3Brounded%3D0%3BentryX%3D0%3BentryY%3D0.5%3BentryDx%3D0%3BentryDy%3D0%3B%22%20edge%3D%221%22%20parent%3D%221%22%3E%3CmxGeometry%20width%3D%2250%22%20height%3D%2250%22%20relative%3D%221%22%20as%3D%22geometry%22%3E%3CmxPoint%20x%3D%22200%22%20y%3D%22320%22%20as%3D%22sourcePoint%22%2F%3E%3CmxPoint%20x%3D%22360%22%20y%3D%22320%22%20as%3D%22targetPoint%22%2F%3E%3C%2FmxGeometry%3E%3C%2FmxCell%3E%3C%2Froot%3E%3C%2FmxGraphModel%3E&lt;/span&gt;" style="text;html=1;align=center;verticalAlign=middle;whiteSpace=wrap;rounded=0;" vertex="1" parent="1">
          <mxGeometry x="490" y="280" width="60" height="30" as="geometry" />
        </mxCell>
        <mxCell id="_44YVeYt1oRbR6Rtj2PV-15" value="N" style="text;html=1;align=center;verticalAlign=middle;whiteSpace=wrap;rounded=0;" vertex="1" parent="1">
          <mxGeometry x="250" y="280" width="60" height="30" as="geometry" />
        </mxCell>
        <mxCell id="_44YVeYt1oRbR6Rtj2PV-16" value="Keeps&lt;div&gt;track off&lt;/div&gt;" style="rhombus;whiteSpace=wrap;html=1;" vertex="1" parent="1">
          <mxGeometry x="150" y="440" width="80" height="80" as="geometry" />
        </mxCell>
        <mxCell id="_44YVeYt1oRbR6Rtj2PV-17" value="Student" style="rounded=0;whiteSpace=wrap;html=1;" vertex="1" parent="1">
          <mxGeometry x="210" y="580" width="120" height="60" as="geometry" />
        </mxCell>
        <mxCell id="_44YVeYt1oRbR6Rtj2PV-18" value="Email" style="ellipse;whiteSpace=wrap;html=1;" vertex="1" parent="1">
          <mxGeometry x="360" y="670" width="80" height="50" as="geometry" />
        </mxCell>
        <mxCell id="_44YVeYt1oRbR6Rtj2PV-19" value="" style="ellipse;whiteSpace=wrap;html=1;" vertex="1" parent="1">
          <mxGeometry x="210" y="660" width="100" height="70" as="geometry" />
        </mxCell>
        <mxCell id="_44YVeYt1oRbR6Rtj2PV-20" value="Title" style="ellipse;whiteSpace=wrap;html=1;" vertex="1" parent="1">
          <mxGeometry x="900" y="690" width="80" height="50" as="geometry" />
        </mxCell>
        <mxCell id="_44YVeYt1oRbR6Rtj2PV-22" value="&lt;u&gt;User_id&lt;/u&gt;" style="ellipse;whiteSpace=wrap;html=1;" vertex="1" parent="1">
          <mxGeometry x="370" y="470" width="80" height="50" as="geometry" />
        </mxCell>
        <mxCell id="_44YVeYt1oRbR6Rtj2PV-23" value="First_Name" style="ellipse;whiteSpace=wrap;html=1;" vertex="1" parent="1">
          <mxGeometry y="485" width="80" height="50" as="geometry" />
        </mxCell>
        <mxCell id="_44YVeYt1oRbR6Rtj2PV-24" value="Address" style="ellipse;whiteSpace=wrap;html=1;" vertex="1" parent="1">
          <mxGeometry x="390" y="610" width="80" height="50" as="geometry" />
        </mxCell>
        <mxCell id="_44YVeYt1oRbR6Rtj2PV-25" value="Name" style="ellipse;whiteSpace=wrap;html=1;" vertex="1" parent="1">
          <mxGeometry x="60" y="580" width="80" height="50" as="geometry" />
        </mxCell>
        <mxCell id="_44YVeYt1oRbR6Rtj2PV-26" value="Last_Name" style="ellipse;whiteSpace=wrap;html=1;" vertex="1" parent="1">
          <mxGeometry x="5" y="690" width="80" height="50" as="geometry" />
        </mxCell>
        <mxCell id="_44YVeYt1oRbR6Rtj2PV-27" value="Phone_no" style="ellipse;whiteSpace=wrap;html=1;" vertex="1" parent="1">
          <mxGeometry x="220" y="670" width="80" height="50" as="geometry" />
        </mxCell>
        <mxCell id="_44YVeYt1oRbR6Rtj2PV-29" value="" style="endArrow=none;html=1;rounded=0;entryX=0.5;entryY=1;entryDx=0;entryDy=0;exitX=0.5;exitY=0;exitDx=0;exitDy=0;" edge="1" parent="1" source="_44YVeYt1oRbR6Rtj2PV-17" target="_44YVeYt1oRbR6Rtj2PV-16">
          <mxGeometry width="50" height="50" relative="1" as="geometry">
            <mxPoint x="270" y="580" as="sourcePoint" />
            <mxPoint x="320" y="530" as="targetPoint" />
          </mxGeometry>
        </mxCell>
        <mxCell id="_44YVeYt1oRbR6Rtj2PV-30" value="" style="endArrow=none;html=1;rounded=0;entryX=0.273;entryY=0.988;entryDx=0;entryDy=0;entryPerimeter=0;exitX=1;exitY=0;exitDx=0;exitDy=0;" edge="1" parent="1" source="_44YVeYt1oRbR6Rtj2PV-17" target="_44YVeYt1oRbR6Rtj2PV-22">
          <mxGeometry width="50" height="50" relative="1" as="geometry">
            <mxPoint x="330" y="580" as="sourcePoint" />
            <mxPoint x="380" y="530" as="targetPoint" />
          </mxGeometry>
        </mxCell>
        <mxCell id="_44YVeYt1oRbR6Rtj2PV-31" value="" style="endArrow=none;html=1;rounded=0;entryX=0;entryY=0.5;entryDx=0;entryDy=0;exitX=1;exitY=0.5;exitDx=0;exitDy=0;" edge="1" parent="1" source="_44YVeYt1oRbR6Rtj2PV-17" target="_44YVeYt1oRbR6Rtj2PV-24">
          <mxGeometry width="50" height="50" relative="1" as="geometry">
            <mxPoint x="302" y="674" as="sourcePoint" />
            <mxPoint x="370" y="610" as="targetPoint" />
          </mxGeometry>
        </mxCell>
        <mxCell id="_44YVeYt1oRbR6Rtj2PV-33" value="" style="endArrow=none;html=1;rounded=0;exitX=0;exitY=0;exitDx=0;exitDy=0;entryX=1;entryY=1;entryDx=0;entryDy=0;" edge="1" parent="1" source="_44YVeYt1oRbR6Rtj2PV-18" target="_44YVeYt1oRbR6Rtj2PV-17">
          <mxGeometry width="50" height="50" relative="1" as="geometry">
            <mxPoint x="280" y="690" as="sourcePoint" />
            <mxPoint x="330" y="640" as="targetPoint" />
          </mxGeometry>
        </mxCell>
        <mxCell id="_44YVeYt1oRbR6Rtj2PV-34" value="" style="endArrow=none;html=1;rounded=0;entryX=-0.005;entryY=0.377;entryDx=0;entryDy=0;entryPerimeter=0;exitX=1;exitY=0.5;exitDx=0;exitDy=0;" edge="1" parent="1" source="_44YVeYt1oRbR6Rtj2PV-25" target="_44YVeYt1oRbR6Rtj2PV-17">
          <mxGeometry width="50" height="50" relative="1" as="geometry">
            <mxPoint x="140" y="655" as="sourcePoint" />
            <mxPoint x="210.71067811865476" y="605" as="targetPoint" />
          </mxGeometry>
        </mxCell>
        <mxCell id="_44YVeYt1oRbR6Rtj2PV-35" value="" style="endArrow=none;html=1;rounded=0;exitX=0.5;exitY=0;exitDx=0;exitDy=0;entryX=0.5;entryY=1;entryDx=0;entryDy=0;" edge="1" parent="1" source="_44YVeYt1oRbR6Rtj2PV-25" target="_44YVeYt1oRbR6Rtj2PV-23">
          <mxGeometry width="50" height="50" relative="1" as="geometry">
            <mxPoint x="50" y="590" as="sourcePoint" />
            <mxPoint x="100" y="540" as="targetPoint" />
          </mxGeometry>
        </mxCell>
        <mxCell id="_44YVeYt1oRbR6Rtj2PV-36" value="" style="endArrow=none;html=1;rounded=0;exitX=0.5;exitY=0;exitDx=0;exitDy=0;entryX=0.5;entryY=1;entryDx=0;entryDy=0;" edge="1" parent="1" source="_44YVeYt1oRbR6Rtj2PV-1" target="_44YVeYt1oRbR6Rtj2PV-2">
          <mxGeometry width="50" height="50" relative="1" as="geometry">
            <mxPoint x="85" y="260" as="sourcePoint" />
            <mxPoint x="135" y="210" as="targetPoint" />
          </mxGeometry>
        </mxCell>
        <mxCell id="_44YVeYt1oRbR6Rtj2PV-37" value="" style="endArrow=none;html=1;rounded=0;entryX=0.5;entryY=1;entryDx=0;entryDy=0;exitX=0.5;exitY=0;exitDx=0;exitDy=0;" edge="1" parent="1" source="_44YVeYt1oRbR6Rtj2PV-16" target="_44YVeYt1oRbR6Rtj2PV-1">
          <mxGeometry width="50" height="50" relative="1" as="geometry">
            <mxPoint x="100" y="410" as="sourcePoint" />
            <mxPoint x="150" y="360" as="targetPoint" />
          </mxGeometry>
        </mxCell>
        <mxCell id="_44YVeYt1oRbR6Rtj2PV-38" value="" style="endArrow=none;html=1;rounded=0;exitX=0.5;exitY=0;exitDx=0;exitDy=0;entryX=0.5;entryY=1;entryDx=0;entryDy=0;" edge="1" parent="1" source="_44YVeYt1oRbR6Rtj2PV-26" target="_44YVeYt1oRbR6Rtj2PV-25">
          <mxGeometry width="50" height="50" relative="1" as="geometry">
            <mxPoint x="50" y="680" as="sourcePoint" />
            <mxPoint x="100" y="630" as="targetPoint" />
          </mxGeometry>
        </mxCell>
        <mxCell id="_44YVeYt1oRbR6Rtj2PV-39" value="" style="endArrow=none;html=1;rounded=0;exitX=0;exitY=0;exitDx=0;exitDy=0;entryX=0.5;entryY=1;entryDx=0;entryDy=0;" edge="1" parent="1" source="_44YVeYt1oRbR6Rtj2PV-1" target="_44YVeYt1oRbR6Rtj2PV-3">
          <mxGeometry width="50" height="50" relative="1" as="geometry">
            <mxPoint x="-30" y="310" as="sourcePoint" />
            <mxPoint x="20" y="260" as="targetPoint" />
          </mxGeometry>
        </mxCell>
        <mxCell id="_44YVeYt1oRbR6Rtj2PV-40" value="Return&lt;div&gt;Date&lt;/div&gt;" style="rhombus;whiteSpace=wrap;html=1;" vertex="1" parent="1">
          <mxGeometry x="570" y="505" width="80" height="80" as="geometry" />
        </mxCell>
        <mxCell id="_44YVeYt1oRbR6Rtj2PV-41" value="" style="endArrow=none;html=1;rounded=0;exitX=0.995;exitY=0.123;exitDx=0;exitDy=0;exitPerimeter=0;entryX=0;entryY=0.5;entryDx=0;entryDy=0;" edge="1" parent="1" source="_44YVeYt1oRbR6Rtj2PV-17" target="_44YVeYt1oRbR6Rtj2PV-40">
          <mxGeometry width="50" height="50" relative="1" as="geometry">
            <mxPoint x="530" y="620" as="sourcePoint" />
            <mxPoint x="580" y="570" as="targetPoint" />
          </mxGeometry>
        </mxCell>
        <mxCell id="_44YVeYt1oRbR6Rtj2PV-43" value="Books" style="rounded=0;whiteSpace=wrap;html=1;" vertex="1" parent="1">
          <mxGeometry x="750" y="580" width="120" height="60" as="geometry" />
        </mxCell>
        <mxCell id="_44YVeYt1oRbR6Rtj2PV-45" value="&lt;u&gt;ISBN&lt;/u&gt;" style="ellipse;whiteSpace=wrap;html=1;" vertex="1" parent="1">
          <mxGeometry x="1040" y="485" width="80" height="50" as="geometry" />
        </mxCell>
        <mxCell id="_44YVeYt1oRbR6Rtj2PV-46" value="category" style="ellipse;whiteSpace=wrap;html=1;" vertex="1" parent="1">
          <mxGeometry x="960" y="580" width="80" height="50" as="geometry" />
        </mxCell>
        <mxCell id="_44YVeYt1oRbR6Rtj2PV-47" value="Author&amp;nbsp;&lt;div&gt;name&lt;/div&gt;" style="ellipse;whiteSpace=wrap;html=1;" vertex="1" parent="1">
          <mxGeometry x="900" y="480" width="80" height="50" as="geometry" />
        </mxCell>
        <mxCell id="_44YVeYt1oRbR6Rtj2PV-49" value="" style="endArrow=none;html=1;rounded=0;exitX=0.25;exitY=0;exitDx=0;exitDy=0;exitPerimeter=0;entryX=1;entryY=1;entryDx=0;entryDy=0;" edge="1" parent="1" source="_44YVeYt1oRbR6Rtj2PV-20" target="_44YVeYt1oRbR6Rtj2PV-43">
          <mxGeometry width="50" height="50" relative="1" as="geometry">
            <mxPoint x="820" y="690" as="sourcePoint" />
            <mxPoint x="870" y="640" as="targetPoint" />
          </mxGeometry>
        </mxCell>
        <mxCell id="_44YVeYt1oRbR6Rtj2PV-50" value="" style="endArrow=none;html=1;rounded=0;exitX=1;exitY=0;exitDx=0;exitDy=0;entryX=0.342;entryY=1.006;entryDx=0;entryDy=0;entryPerimeter=0;" edge="1" parent="1" source="_44YVeYt1oRbR6Rtj2PV-43" target="_44YVeYt1oRbR6Rtj2PV-47">
          <mxGeometry width="50" height="50" relative="1" as="geometry">
            <mxPoint x="880" y="580" as="sourcePoint" />
            <mxPoint x="930" y="530" as="targetPoint" />
          </mxGeometry>
        </mxCell>
        <mxCell id="_44YVeYt1oRbR6Rtj2PV-51" value="" style="endArrow=none;html=1;rounded=0;entryX=0;entryY=0.5;entryDx=0;entryDy=0;exitX=1;exitY=0.5;exitDx=0;exitDy=0;" edge="1" parent="1" source="_44YVeYt1oRbR6Rtj2PV-43" target="_44YVeYt1oRbR6Rtj2PV-46">
          <mxGeometry width="50" height="50" relative="1" as="geometry">
            <mxPoint x="880" y="620" as="sourcePoint" />
            <mxPoint x="920" y="570" as="targetPoint" />
          </mxGeometry>
        </mxCell>
        <mxCell id="_44YVeYt1oRbR6Rtj2PV-54" value="" style="endArrow=none;html=1;rounded=0;entryX=0;entryY=0.5;entryDx=0;entryDy=0;exitX=1;exitY=0.25;exitDx=0;exitDy=0;" edge="1" parent="1" source="_44YVeYt1oRbR6Rtj2PV-43" target="_44YVeYt1oRbR6Rtj2PV-45">
          <mxGeometry width="50" height="50" relative="1" as="geometry">
            <mxPoint x="955" y="525" as="sourcePoint" />
            <mxPoint x="1045" y="520" as="targetPoint" />
          </mxGeometry>
        </mxCell>
        <mxCell id="_44YVeYt1oRbR6Rtj2PV-55" value="" style="endArrow=none;html=1;rounded=0;exitX=1;exitY=0.5;exitDx=0;exitDy=0;entryX=0;entryY=0.5;entryDx=0;entryDy=0;" edge="1" parent="1" source="_44YVeYt1oRbR6Rtj2PV-40" target="_44YVeYt1oRbR6Rtj2PV-43">
          <mxGeometry width="50" height="50" relative="1" as="geometry">
            <mxPoint x="730" y="600" as="sourcePoint" />
            <mxPoint x="780" y="550" as="targetPoint" />
          </mxGeometry>
        </mxCell>
        <mxCell id="_44YVeYt1oRbR6Rtj2PV-56" value="Maintain" style="rhombus;whiteSpace=wrap;html=1;" vertex="1" parent="1">
          <mxGeometry x="480" y="390" width="80" height="80" as="geometry" />
        </mxCell>
        <mxCell id="_44YVeYt1oRbR6Rtj2PV-57" value="" style="endArrow=none;html=1;rounded=0;exitX=1;exitY=1;exitDx=0;exitDy=0;entryX=0;entryY=0.5;entryDx=0;entryDy=0;" edge="1" parent="1" source="_44YVeYt1oRbR6Rtj2PV-1" target="_44YVeYt1oRbR6Rtj2PV-56">
          <mxGeometry width="50" height="50" relative="1" as="geometry">
            <mxPoint x="480" y="440" as="sourcePoint" />
            <mxPoint x="530" y="390" as="targetPoint" />
          </mxGeometry>
        </mxCell>
        <mxCell id="_44YVeYt1oRbR6Rtj2PV-58" value="" style="endArrow=none;html=1;rounded=0;entryX=0;entryY=0;entryDx=0;entryDy=0;exitX=1;exitY=0.5;exitDx=0;exitDy=0;" edge="1" parent="1" source="_44YVeYt1oRbR6Rtj2PV-56" target="_44YVeYt1oRbR6Rtj2PV-43">
          <mxGeometry width="50" height="50" relative="1" as="geometry">
            <mxPoint x="480" y="440" as="sourcePoint" />
            <mxPoint x="530" y="390" as="targetPoint" />
          </mxGeometry>
        </mxCell>
        <mxCell id="_44YVeYt1oRbR6Rtj2PV-59" value="1" style="text;html=1;align=center;verticalAlign=middle;resizable=0;points=[];autosize=1;strokeColor=none;fillColor=none;" vertex="1" parent="1">
          <mxGeometry x="285" y="348" width="30" height="30" as="geometry" />
        </mxCell>
        <mxCell id="_44YVeYt1oRbR6Rtj2PV-62" value="N" style="text;html=1;align=center;verticalAlign=middle;resizable=0;points=[];autosize=1;strokeColor=none;fillColor=none;" vertex="1" parent="1">
          <mxGeometry x="635" y="468" width="30" height="30" as="geometry" />
        </mxCell>
        <mxCell id="_44YVeYt1oRbR6Rtj2PV-63" value="M" style="text;html=1;align=center;verticalAlign=middle;resizable=0;points=[];autosize=1;strokeColor=none;fillColor=none;" vertex="1" parent="1">
          <mxGeometry x="165" y="368" width="30" height="30" as="geometry" />
        </mxCell>
        <mxCell id="_44YVeYt1oRbR6Rtj2PV-64" value="N" style="text;html=1;align=center;verticalAlign=middle;resizable=0;points=[];autosize=1;strokeColor=none;fillColor=none;" vertex="1" parent="1">
          <mxGeometry x="235" y="508" width="30" height="30" as="geometry" />
        </mxCell>
        <mxCell id="_44YVeYt1oRbR6Rtj2PV-65" value="1" style="text;html=1;align=center;verticalAlign=middle;resizable=0;points=[];autosize=1;strokeColor=none;fillColor=none;" vertex="1" parent="1">
          <mxGeometry x="445" y="538" width="30" height="30" as="geometry" />
        </mxCell>
        <mxCell id="_44YVeYt1oRbR6Rtj2PV-66" value="N" style="text;html=1;align=center;verticalAlign=middle;resizable=0;points=[];autosize=1;strokeColor=none;fillColor=none;" vertex="1" parent="1">
          <mxGeometry x="685" y="548" width="30" height="30" as="geometry" />
        </mxCell>
        <mxCell id="_44YVeYt1oRbR6Rtj2PV-67" value="Publishes" style="rhombus;whiteSpace=wrap;html=1;" vertex="1" parent="1">
          <mxGeometry x="910" y="323" width="80" height="80" as="geometry" />
        </mxCell>
        <mxCell id="_44YVeYt1oRbR6Rtj2PV-68" value="Publisher" style="rounded=0;whiteSpace=wrap;html=1;" vertex="1" parent="1">
          <mxGeometry x="960" y="210" width="120" height="60" as="geometry" />
        </mxCell>
        <mxCell id="_44YVeYt1oRbR6Rtj2PV-69" value="&lt;u&gt;publisher_id&lt;/u&gt;" style="ellipse;whiteSpace=wrap;html=1;" vertex="1" parent="1">
          <mxGeometry x="920" y="70" width="80" height="50" as="geometry" />
        </mxCell>
        <mxCell id="_44YVeYt1oRbR6Rtj2PV-70" value="name" style="ellipse;whiteSpace=wrap;html=1;" vertex="1" parent="1">
          <mxGeometry x="1130" y="180" width="80" height="50" as="geometry" />
        </mxCell>
        <mxCell id="_44YVeYt1oRbR6Rtj2PV-71" value="Year Of publication" style="ellipse;whiteSpace=wrap;html=1;" vertex="1" parent="1">
          <mxGeometry x="1060" y="70" width="80" height="50" as="geometry" />
        </mxCell>
        <mxCell id="_44YVeYt1oRbR6Rtj2PV-74" value="" style="endArrow=none;html=1;rounded=0;exitX=0.167;exitY=0;exitDx=0;exitDy=0;exitPerimeter=0;entryX=0.5;entryY=1;entryDx=0;entryDy=0;" edge="1" parent="1" source="_44YVeYt1oRbR6Rtj2PV-68" target="_44YVeYt1oRbR6Rtj2PV-69">
          <mxGeometry width="50" height="50" relative="1" as="geometry">
            <mxPoint x="915" y="170" as="sourcePoint" />
            <mxPoint x="965" y="120" as="targetPoint" />
          </mxGeometry>
        </mxCell>
        <mxCell id="_44YVeYt1oRbR6Rtj2PV-75" value="" style="endArrow=none;html=1;rounded=0;exitX=1;exitY=0.5;exitDx=0;exitDy=0;entryX=0;entryY=0.5;entryDx=0;entryDy=0;" edge="1" parent="1" source="_44YVeYt1oRbR6Rtj2PV-68" target="_44YVeYt1oRbR6Rtj2PV-70">
          <mxGeometry width="50" height="50" relative="1" as="geometry">
            <mxPoint x="1150" y="300" as="sourcePoint" />
            <mxPoint x="1130" y="210" as="targetPoint" />
          </mxGeometry>
        </mxCell>
        <mxCell id="_44YVeYt1oRbR6Rtj2PV-76" value="" style="endArrow=none;html=1;rounded=0;exitX=0.422;exitY=-0.041;exitDx=0;exitDy=0;exitPerimeter=0;entryX=0;entryY=1;entryDx=0;entryDy=0;" edge="1" parent="1" source="_44YVeYt1oRbR6Rtj2PV-68" target="_44YVeYt1oRbR6Rtj2PV-71">
          <mxGeometry width="50" height="50" relative="1" as="geometry">
            <mxPoint x="980" y="240" as="sourcePoint" />
            <mxPoint x="960" y="150" as="targetPoint" />
          </mxGeometry>
        </mxCell>
        <mxCell id="_44YVeYt1oRbR6Rtj2PV-77" value="" style="endArrow=none;html=1;rounded=0;exitX=0.5;exitY=0;exitDx=0;exitDy=0;entryX=0.5;entryY=1;entryDx=0;entryDy=0;" edge="1" parent="1" source="_44YVeYt1oRbR6Rtj2PV-67" target="_44YVeYt1oRbR6Rtj2PV-68">
          <mxGeometry width="50" height="50" relative="1" as="geometry">
            <mxPoint x="1030" y="360" as="sourcePoint" />
            <mxPoint x="1010" y="270" as="targetPoint" />
          </mxGeometry>
        </mxCell>
        <mxCell id="_44YVeYt1oRbR6Rtj2PV-78" value="" style="endArrow=none;html=1;rounded=0;exitX=0.5;exitY=0;exitDx=0;exitDy=0;entryX=0.5;entryY=1;entryDx=0;entryDy=0;" edge="1" parent="1" source="_44YVeYt1oRbR6Rtj2PV-43" target="_44YVeYt1oRbR6Rtj2PV-67">
          <mxGeometry width="50" height="50" relative="1" as="geometry">
            <mxPoint x="980" y="530" as="sourcePoint" />
            <mxPoint x="960" y="440" as="targetPoint" />
          </mxGeometry>
        </mxCell>
        <mxCell id="_44YVeYt1oRbR6Rtj2PV-79" value="" style="endArrow=none;html=1;rounded=0;exitX=0.5;exitY=0;exitDx=0;exitDy=0;" edge="1" parent="1" source="_44YVeYt1oRbR6Rtj2PV-19">
          <mxGeometry width="50" height="50" relative="1" as="geometry">
            <mxPoint x="220" y="690" as="sourcePoint" />
            <mxPoint x="270" y="640" as="targetPoint" />
          </mxGeometry>
        </mxCell>
      </root>
    </mxGraphModel>
  </diagram>
</mxfile>
